<?xml version="1.0" encoding="UTF-8"?>
<svg width="249px" height="200px" viewBox="0 0 249 200" version="1.1" xmlns="http://www.w3.org/2000/svg" xmlns:xlink="http://www.w3.org/1999/xlink">
    <!-- Generator: Sketch 61.2 (89653) - https://sketch.com -->
    <title>知识库-项目</title>
    <desc>Created with Sketch.</desc>
    <defs>
        <path d="M21.6716329,4.99076236 L16.9535024,4.99076236 C16.4794833,3.67529148 15.23787,2.72251309 13.7705603,2.72251309 C12.3032506,2.72251309 11.0616373,3.67529148 10.5876182,4.99076236 L5.86948777,4.99076236 C4.62787449,4.99076236 3.61195766,6.01175878 3.61195766,7.25958012 L3.61195766,23.1413044 C3.61195766,24.3891257 4.62787449,25.4101222 5.86948777,25.4101222 L21.6716329,25.4101222 C22.9132461,25.4101222 23.929163,24.3891257 23.929163,23.1413044 L23.929163,7.25958012 C23.929163,6.01175878 22.9132461,4.99076236 21.6716329,4.99076236 L21.6716329,4.99076236 Z M13.7705603,4.99076236 C14.3910841,4.99076236 14.8990425,5.50126057 14.8990425,6.12545548 C14.8990425,6.74965039 14.3910841,7.25958012 13.7705603,7.25958012 C13.1494708,7.25958012 12.6415124,6.74965039 12.6415124,6.12545548 C12.6415124,5.50126057 13.1494708,4.99076236 13.7705603,4.99076236 L13.7705603,4.99076236 Z M8.12701787,18.6036689 L16.0280904,18.6036689 L16.0280904,20.8724867 L8.12701787,20.8724867 L8.12701787,18.6036689 Z M8.12701787,14.0660334 L19.4146684,14.0660334 L19.4146684,16.3348511 L8.12701787,16.3348511 L8.12701787,14.0660334 Z M8.12701787,9.52839787 L19.4146684,9.52839787 L19.4146684,11.7972156 L8.12701787,11.7972156 L8.12701787,9.52839787 Z" id="path-1"></path>
        <linearGradient x1="50%" y1="0%" x2="50%" y2="100%" id="linearGradient-3">
            <stop stop-color="#3A345F" offset="0%"></stop>
            <stop stop-color="#FFFFFF" stop-opacity="0.2" offset="100%"></stop>
        </linearGradient>
    </defs>
    <g id="平台管理" stroke="none" stroke-width="1" fill="none" fill-rule="evenodd">
        <g id="平台管理-hzero跳转" transform="translate(-575.000000, -267.000000)">
            <g id="编组-5" transform="translate(575.000000, 267.000000)">
                <g id="知识库-项目">
                    <g id="编组-3">
                        <g id="编组-9" transform="translate(0.000000, 37.500000)">
                            <rect id="矩形" fill="#DEE0ED" x="0" y="0" width="49.7512438" height="125" rx="2"></rect>
                            <rect id="矩形" fill="#F9FAFF" x="0" y="17.5" width="49.7512438" height="7.5"></rect>
                            <rect id="矩形" fill="#F9FAFF" x="0" y="32.5" width="49.7512438" height="7.5"></rect>
                            <rect id="矩形" fill="#F9FAFF" x="0" y="100" width="49.7512438" height="7.5"></rect>
                        </g>
                        <g id="编组-8" transform="translate(50.995025, 0.000000)">
                            <rect id="矩形" fill="#CFD5F1" x="0" y="0" width="62.1890547" height="162.5" rx="2"></rect>
                            <rect id="矩形" fill="#F9FAFF" x="0" y="20" width="62.1890547" height="10"></rect>
                            <rect id="矩形" fill="#F9FAFF" x="0" y="37.5" width="62.1890547" height="10"></rect>
                            <rect id="矩形" fill="#F9FAFF" x="0" y="132.5" width="62.1890547" height="10"></rect>
                        </g>
                        <g id="编组-7" transform="translate(114.427861, 25.000000)">
                            <rect id="矩形" fill="#F2F4FD" x="0" y="0" width="37.3134328" height="137.5" rx="2"></rect>
                            <rect id="矩形" fill="#DEE0ED" x="0" y="17.5" width="37.3134328" height="7.5"></rect>
                            <rect id="矩形" fill="#DEE0ED" x="0" y="32.5" width="37.3134328" height="7.5"></rect>
                            <rect id="矩形" fill="#DEE0ED" x="0" y="112.5" width="37.3134328" height="7.5"></rect>
                        </g>
                        <g id="编组-6" transform="translate(178.753785, 110.000000) rotate(-10.000000) translate(-178.753785, -110.000000) translate(160.097069, 60.000000)">
                            <path d="M2.00767716,0.00415048169 L35.1446191,0.0726546583 C36.2461934,0.0749319487 37.1385359,0.967543346 37.1404813,2.06911828 L37.3098872,97.9923217 C37.3118379,99.0968895 36.4179902,99.9938999 35.3134224,99.9958507 C35.3108668,99.9958552 35.3083112,99.9958548 35.3057557,99.9958495 L2.16881377,99.9273453 C1.06723948,99.9250681 0.174896937,99.0324567 0.172951493,97.9308817 L0.00354567382,2.00767832 C0.00159494445,0.903110539 0.89544267,0.00610005626 2.00001045,0.0041493269 C2.00256602,0.00414481362 2.00512159,0.00414519855 2.00767716,0.00415048169 Z" id="矩形" fill="#CFD5F1"></path>
                            <ellipse id="椭圆形" fill="#F9FAFF" cx="18.6567164" cy="77.5" rx="7.46268657" ry="7.5"></ellipse>
                            <path d="M17.9205669,15.0136145 L19.3630469,15.0165341 C23.0538047,15.0240042 26.0436678,18.0145256 26.0503254,21.705285 L26.1072694,53.2734601 C26.113945,56.9742324 23.1192879,59.9797127 19.4185157,59.9863883 C19.4099657,59.9864037 19.4014158,59.9864028 19.3928659,59.9863855 L17.9503859,59.9834659 C14.2596281,59.9759958 11.269765,56.9854744 11.2631075,53.294715 L11.2061635,21.7265399 C11.1994879,18.0257676 14.1941449,15.0202873 17.8949172,15.0136117 C17.9034671,15.0135963 17.912017,15.0135972 17.9205669,15.0136145 Z" id="矩形" fill="#F9FAFF"></path>
                        </g>
                    </g>
                    <g id="编组-6" transform="translate(85.820896, 0.000000)">
                        <polygon id="路径-9" fill="#7181D7" points="41.8019066 100.52356 150.035164 100.52356 124.343747 118.324607 16.6705738 118.324607"></polygon>
                        <path d="M123.987393,200 L148.178012,184.349375 C149.316846,183.612582 150.004703,182.348862 150.005215,180.992468 L150.035164,101.570681 L150.035164,101.570681 L123.987393,118.540122 L123.987393,200 Z" id="路径-7" fill="#6776C4"></path>
                        <path d="M16.6705738,118.544952 L41.6764346,100.52356 L41.6764346,185.053903 L22.7227569,196.382587 C20.8265175,197.515977 18.3705182,196.897565 17.2371288,195.001325 C16.8663605,194.381004 16.6705738,193.671823 16.6705738,192.949142 L16.6705738,118.544952 L16.6705738,118.544952 Z" id="路径-8" fill="#5665B2"></path>
                        <path d="M20.6705738,200 L123.987393,200 L123.987393,200 L123.987393,118.324607 L16.6705738,118.324607 L16.6705738,196 C16.6705738,198.209139 18.4614348,200 20.6705738,200 Z" id="路径-3" fill="#8694DF"></path>
                        <g id="编组-7" transform="translate(50.011721, 148.691099)">
                            <ellipse id="椭圆形" fill="#292E76" cx="20.8382173" cy="20.9424084" rx="20.8382173" ry="20.9424084"></ellipse>
                            <g id="编组-13" transform="translate(7.293376, 7.329843)">
                                <mask id="mask-2" fill="white">
                                    <use xlink:href="#path-1"></use>
                                </mask>
                                <use id="Fill-17" fill="#FFBA1C" xlink:href="#path-1"></use>
                                <rect id="矩形" x="0" y="0" width="27.0896825" height="27.2251309"></rect>
                            </g>
                        </g>
                        <path d="M41.6764346,100.52356 L48.310952,98.5892081 C48.6747019,98.4831536 49.0516752,98.4293194 49.4305704,98.4293194 L149.611008,98.4293194 C150.163292,98.4293194 150.611008,98.8770346 150.611008,99.4293194 C150.611008,99.8947727 150.289872,100.298681 149.836395,100.403589 L149.317801,100.52356 L149.317801,100.52356 L41.6764346,100.52356 Z" id="路径-10" fill="#94A2EB"></path>
                        <path d="M123.987393,118.341822 L135.105961,149.541065 C135.847554,151.622011 138.135673,152.707771 140.216619,151.966178 C140.667495,151.805498 141.085871,151.565198 141.451849,151.256707 L150.035164,144.021648 L150.035164,144.021648 L150.035164,101.570681 L123.987393,118.341822 Z" id="路径-13" fill="#5665B2"></path>
                        <path d="M123.987393,118.528312 L136.821367,140.446066 C137.937642,142.352431 140.387975,142.992925 142.29434,141.876651 C142.479394,141.768292 142.655434,141.645228 142.820759,141.508647 L160.930644,126.547445 C162.454335,125.288671 162.830284,123.105772 161.815471,121.409806 L149.317801,100.52356 L149.317801,100.52356 L123.987393,118.528312 Z" id="路径-11" fill="#94A2EB"></path>
                        <path d="M0,120.418848 L17.3680271,117.069631 C17.9184683,116.963485 18.4404521,116.742825 18.9001254,116.421962 L35.3421243,104.945059 C36.247863,104.312831 36.4695881,103.066064 35.837361,102.160325 C35.4214563,101.564493 34.7151102,101.24111 33.9923091,101.315614 L24.6450003,102.279104 L24.6450003,102.279104 L0,120.418848 Z" id="路径-11" fill="#94A2EB" transform="translate(20.838217, 110.471204) scale(-1, -1) translate(-20.838217, -110.471204) "></path>
                        <g id="Group-6" transform="translate(77.451599, 76.134779) rotate(-28.000000) translate(-77.451599, -76.134779) translate(47.951599, 6.634779)">
                            <path d="M39.3212759,138.381407 C32.1837797,133.736211 26.7173674,125.30541 22.922039,113.089005 C17.2290464,94.7643979 36.2251611,66.4921466 29.4152233,48.1675393 C22.6052856,29.8429319 9.44621912,30.1472348 5.6929926,31.9371728 C1.93976608,33.7271108 -4.98188924,42.7891029 5.6929926,58.1151832 C16.3678744,73.4412636 30.3270463,75.4694318 34.8664968,73.8219895 C44.2436946,70.4188482 45.2797026,67.124588 49.9742043,62.3036649 C57.1962694,54.8871121 58.8304467,41.2648291 58.8304467,35.078534 C58.8304467,21.8150087 55.8783659,13.9616056 49.9742043,11.5183246" id="Line" stroke="url(#linearGradient-3)" stroke-linecap="round"></path>
                            <path d="M50.9675159,11.8806403 C49.2650307,9.23608837 47.9650971,7.90284822 47.0677152,7.88091984 C46.1703332,7.85899146 45.7178403,9.45362857 45.7102363,12.6648312" id="直线" stroke="#3A345F" stroke-linecap="square" transform="translate(48.338876, 10.272764) rotate(-52.000000) translate(-48.338876, -10.272764) "></path>
                        </g>
                        <path d="M123.987393,118.324607 L116.575851,157.991214 C116.222142,159.884266 114.56971,161.256545 112.643897,161.256545 L16.6705738,161.256545 L16.6705738,161.256545 L16.6705738,118.324607 L123.987393,118.324607 Z" id="路径-12" fill-opacity="0.246284965" fill="#05135C"></path>
                        <path d="M17.4344388,118.324607 L3.97245591,144.98223 C2.97662585,146.954188 3.76793374,149.360056 5.73989155,150.355886 C6.29901319,150.63824 6.91663027,150.78534 7.54300138,150.78534 L107.913272,150.78534 C109.490427,150.78534 110.920355,149.858591 111.564474,148.418963 L125.029304,118.324607 L125.029304,118.324607 L17.4344388,118.324607 Z" id="路径-10" fill="#94A2EB"></path>
                    </g>
                </g>
            </g>
        </g>
    </g>
</svg>