<?xml version="1.0" encoding="UTF-8"?>
<svg width="265px" height="187px" viewBox="0 0 265 187" version="1.1" xmlns="http://www.w3.org/2000/svg" xmlns:xlink="http://www.w3.org/1999/xlink">
    <!-- Generator: Sketch 57.1 (83088) - https://sketch.com -->
    <title>Group 10</title>
    <desc>Created with Sketch.</desc>
    <defs>
        <linearGradient x1="50%" y1="0%" x2="50%" y2="100%" id="linearGradient-1">
            <stop stop-color="#838698" offset="0%"></stop>
            <stop stop-color="#FFFFFF" stop-opacity="0.2" offset="100%"></stop>
        </linearGradient>
    </defs>
    <g id="缺省页" stroke="none" stroke-width="1" fill="none" fill-rule="evenodd">
        <g id="市场发布-缺省页" transform="translate(-474.000000, -372.000000)">
            <g id="应用市场-缺省页">
                <g id="编组-4" transform="translate(474.000000, 368.000000)">
                    <g id="Group-10">
                        <g id="management" transform="translate(0.000000, 14.000000)">
                            <path d="M12.8235294,0 L205.176471,0 C213.72549,0 218,4.28571437 218,12.8571431 L218,149.142857 C218,157.714286 213.72549,162 205.176471,162 L12.8235294,162 C4.27450979,162 0,157.714286 0,149.142857 L0,12.8571431 C0,4.28571456 4.27450979,0 12.8235294,0 Z" id="路径" fill="#DEE0ED"></path>
                            <path d="M85.116279,10 L184.883721,10 C188.294574,10 190,11.6666667 190,15 L190,15 C190,18.3333334 188.294574,20 184.883721,20 L85.116279,20 C81.7054263,20 80,18.3333334 80,15 L80,15 C80,11.6666669 81.7054263,10 85.116279,10 Z" id="路径" fill="#CFD5F1"></path>
                            <path d="M18,10 L18,10 C21.3333331,10 23,11.6666667 23,15 L23,15 C23,18.3333334 21.3333333,20 18,20 L18,20 C14.6666666,20 13,18.3333334 13,15 L13,15 C13,11.6666669 14.6666666,10 18,10 Z" id="路径" fill="#F9FAFF"></path>
                            <path d="M36,10 L36,10 C39.3333334,10 41,11.6666667 41,15 L41,15 C41,18.3333334 39.3333334,20 36,20 L36,20 C32.6666669,20 31,18.3333334 31,15 L31,15 C31,11.6666669 32.6666667,10 36,10 Z" id="路径" fill="#F9FAFF"></path>
                            <path d="M54,10 L54,10 C57.3333331,10 59,11.6666667 59,15 L59,15 C59,18.3333334 57.3333333,20 54,20 L54,20 C50.6666666,20 49,18.3333334 49,15 L49,15 C49,11.6666669 50.6666666,10 54,10 Z" id="路径" fill="#F9FAFF"></path>
                            <path d="M0,31 L218,31 L218,150.058824 C218,157.206235 212.258906,163 205.176471,163 L12.8235294,163 C5.74109399,163 0,157.206235 0,150.058824 L0,31 Z" id="路径" fill="#F2F4FD"></path>
                            <g id="Group-6-Copy" transform="translate(17.000000, 47.000000)" fill-rule="nonzero">
                                <rect id="Rectangle-7-Copy-2" fill="#E8EAF4" x="0" y="0" width="32" height="27" rx="2"></rect>
                                <circle id="Oval-3" fill="#DEE0ED" cx="16" cy="9" r="5"></circle>
                                <rect id="Rectangle-3-Copy-8" fill="#DEE0ED" x="4" y="21" width="16" height="2" rx="1"></rect>
                                <rect id="Rectangle-3-Copy-9" fill="#DEE0ED" x="4" y="16" width="24" height="2" rx="1"></rect>
                            </g>
                            <g id="Group-6-Copy备份-3" transform="translate(17.000000, 84.000000)" fill-rule="nonzero">
                                <rect id="Rectangle-7-Copy-2" fill="#E8EAF4" x="0" y="0" width="32" height="27" rx="2"></rect>
                                <circle id="Oval-3" fill="#DEE0ED" cx="16" cy="9" r="5"></circle>
                                <rect id="Rectangle-3-Copy-8" fill="#DEE0ED" x="4" y="21" width="16" height="2" rx="1"></rect>
                                <rect id="Rectangle-3-Copy-9" fill="#DEE0ED" x="4" y="16" width="24" height="2" rx="1"></rect>
                            </g>
                            <g id="Group-6-Copy备份-8" transform="translate(17.000000, 121.000000)" fill-rule="nonzero">
                                <rect id="Rectangle-7-Copy-2" fill="#E8EAF4" x="0" y="0" width="32" height="27" rx="2"></rect>
                                <circle id="Oval-3" fill="#DEE0ED" cx="16" cy="9" r="5"></circle>
                                <rect id="Rectangle-3-Copy-8" fill="#DEE0ED" x="4" y="21" width="16" height="2" rx="1"></rect>
                                <rect id="Rectangle-3-Copy-9" fill="#DEE0ED" x="4" y="16" width="24" height="2" rx="1"></rect>
                            </g>
                            <g id="Group-6-Copy" transform="translate(55.000000, 47.000000)" fill-rule="nonzero">
                                <rect id="Rectangle-7-Copy-2" fill="#E8EAF4" x="0" y="0" width="32" height="27" rx="2"></rect>
                                <circle id="Oval-3" fill="#DEE0ED" cx="16" cy="9" r="5"></circle>
                                <rect id="Rectangle-3-Copy-8" fill="#DEE0ED" x="4" y="21" width="16" height="2" rx="1"></rect>
                                <rect id="Rectangle-3-Copy-9" fill="#DEE0ED" x="4" y="16" width="24" height="2" rx="1"></rect>
                            </g>
                            <g id="Group-6-Copy备份-4" transform="translate(55.000000, 84.000000)" fill-rule="nonzero">
                                <rect id="Rectangle-7-Copy-2" fill="#E8EAF4" x="0" y="0" width="32" height="27" rx="2"></rect>
                                <circle id="Oval-3" fill="#DEE0ED" cx="16" cy="9" r="5"></circle>
                                <rect id="Rectangle-3-Copy-8" fill="#DEE0ED" x="4" y="21" width="16" height="2" rx="1"></rect>
                                <rect id="Rectangle-3-Copy-9" fill="#DEE0ED" x="4" y="16" width="24" height="2" rx="1"></rect>
                            </g>
                            <g id="Group-6-Copy备份-9" transform="translate(55.000000, 121.000000)" fill-rule="nonzero">
                                <rect id="Rectangle-7-Copy-2" fill="#E8EAF4" x="0" y="0" width="32" height="27" rx="2"></rect>
                                <circle id="Oval-3" fill="#DEE0ED" cx="16" cy="9" r="5"></circle>
                                <rect id="Rectangle-3-Copy-8" fill="#DEE0ED" x="4" y="21" width="16" height="2" rx="1"></rect>
                                <rect id="Rectangle-3-Copy-9" fill="#DEE0ED" x="4" y="16" width="24" height="2" rx="1"></rect>
                            </g>
                            <g id="Group-6-Copy备份" transform="translate(93.000000, 47.000000)" fill-rule="nonzero">
                                <rect id="Rectangle-7-Copy-2" fill="#E8EAF4" x="0" y="0" width="32" height="27" rx="2"></rect>
                                <circle id="Oval-3" fill="#DEE0ED" cx="16" cy="9" r="5"></circle>
                                <rect id="Rectangle-3-Copy-8" fill="#DEE0ED" x="4" y="21" width="16" height="2" rx="1"></rect>
                                <rect id="Rectangle-3-Copy-9" fill="#DEE0ED" x="4" y="16" width="24" height="2" rx="1"></rect>
                            </g>
                            <g id="Group-6-Copy备份-5" transform="translate(93.000000, 84.000000)" fill-rule="nonzero">
                                <rect id="Rectangle-7-Copy-2" fill="#E8EAF4" x="0" y="0" width="32" height="27" rx="2"></rect>
                                <circle id="Oval-3" fill="#DEE0ED" cx="16" cy="9" r="5"></circle>
                                <rect id="Rectangle-3-Copy-8" fill="#DEE0ED" x="4" y="21" width="16" height="2" rx="1"></rect>
                                <rect id="Rectangle-3-Copy-9" fill="#DEE0ED" x="4" y="16" width="24" height="2" rx="1"></rect>
                            </g>
                            <g id="Group-6-Copy备份" transform="translate(131.000000, 47.000000)" fill-rule="nonzero">
                                <rect id="Rectangle-7-Copy-2" fill="#E8EAF4" x="0" y="0" width="32" height="27" rx="2"></rect>
                                <circle id="Oval-3" fill="#DEE0ED" cx="16" cy="9" r="5"></circle>
                                <rect id="Rectangle-3-Copy-8" fill="#DEE0ED" x="4" y="21" width="16" height="2" rx="1"></rect>
                                <rect id="Rectangle-3-Copy-9" fill="#DEE0ED" x="4" y="16" width="24" height="2" rx="1"></rect>
                            </g>
                            <g id="Group-6-Copy备份-6" transform="translate(131.000000, 84.000000)" fill-rule="nonzero">
                                <rect id="Rectangle-7-Copy-2" fill="#E8EAF4" x="0" y="0" width="32" height="27" rx="2"></rect>
                                <circle id="Oval-3" fill="#DEE0ED" cx="16" cy="9" r="5"></circle>
                                <rect id="Rectangle-3-Copy-8" fill="#DEE0ED" x="4" y="21" width="16" height="2" rx="1"></rect>
                                <rect id="Rectangle-3-Copy-9" fill="#DEE0ED" x="4" y="16" width="24" height="2" rx="1"></rect>
                            </g>
                            <g id="Group-6-Copy备份-2" transform="translate(169.000000, 47.000000)" fill-rule="nonzero">
                                <rect id="Rectangle-7-Copy-2" fill="#E8EAF4" x="0" y="0" width="32" height="27" rx="2"></rect>
                                <circle id="Oval-3" fill="#DEE0ED" cx="16" cy="9" r="5"></circle>
                                <rect id="Rectangle-3-Copy-8" fill="#DEE0ED" x="4" y="21" width="16" height="2" rx="1"></rect>
                                <rect id="Rectangle-3-Copy-9" fill="#DEE0ED" x="4" y="16" width="24" height="2" rx="1"></rect>
                            </g>
                            <g id="Group-6-Copy备份-7" transform="translate(169.000000, 84.000000)" fill-rule="nonzero">
                                <rect id="Rectangle-7-Copy-2" fill="#E8EAF4" x="0" y="0" width="32" height="27" rx="2"></rect>
                                <circle id="Oval-3" fill="#DEE0ED" cx="16" cy="9" r="5"></circle>
                                <rect id="Rectangle-3-Copy-8" fill="#DEE0ED" x="4" y="21" width="16" height="2" rx="1"></rect>
                                <rect id="Rectangle-3-Copy-9" fill="#DEE0ED" x="4" y="16" width="24" height="2" rx="1"></rect>
                            </g>
                        </g>
                        <g id="编组-6" transform="translate(109.000000, 0.000000)">
                            <polygon id="路径-9" fill="#7181D7" points="40.1204249 96 144 96 119.34202 113 16 113"></polygon>
                            <path d="M119,191 L142.136454,176.105859 C143.27967,175.369912 143.970779,174.103649 143.971294,172.744031 L144,97 L144,97 L119,113.205817 L119,191 Z" id="路径-7" fill="#6776C4"></path>
                            <path d="M16,113.210429 L40,96 L40,176.726477 L22.0446458,187.405067 C20.1459246,188.534294 17.6912878,187.910495 16.5620611,186.011774 C16.1941771,185.393201 16,184.68683 16,183.967128 L16,113.210429 L16,113.210429 Z" id="路径-8" fill="#5665B2"></path>
                            <path d="M20,191 L119,191 L119,191 L119,113 L16,113 L16,187 C16,189.209139 17.790861,191 20,191 Z" id="路径-3" fill="#8694DF"></path>
                            <g id="编组-7" transform="translate(48.000000, 142.000000)">
                                <circle id="椭圆形" fill="#292E76" cx="20" cy="20" r="20"></circle>
                                <g id="baseline-security-24px" transform="translate(5.000000, 5.000000)">
                                    <path d="M15,1.25 L3.75,6.25 L3.75,13.75 C3.75,20.6875 8.55,27.175 15,28.75 C21.45,27.175 26.25,20.6875 26.25,13.75 L26.25,6.25 L15,1.25 Z M15,14.9875 L23.75,14.9875 C23.0875,20.1375 19.65,24.725 15,26.1625 L15,15 L6.25,15 L6.25,7.875 L15,3.9875 L15,14.9875 Z" id="形状" fill="#FFBA1C" fill-rule="nonzero"></path>
                                    <polygon id="路径" points="0 0 30 0 30 30 0 30"></polygon>
                                </g>
                            </g>
                            <path d="M40,96 L46.3479926,94.1583947 C46.7101628,94.0533262 47.0853712,94 47.4624741,94 L143.197883,94 C143.750168,94 144.197883,94.4477153 144.197883,95 C144.197883,95.465862 143.876196,95.8700115 143.422206,95.9745149 L143.311492,96 L143.311492,96 L40,96 Z" id="路径-10" fill="#94A2EB"></path>
                            <path d="M119,113.01644 L129.59322,142.593645 C130.3381,144.673416 132.627933,145.755559 134.707704,145.010679 C135.153217,144.851116 135.566882,144.613763 135.92946,144.309659 L144,137.540673 L144,137.540673 L144,97 L119,113.01644 Z" id="路径-13" fill="#5665B2"></path>
                            <path d="M119,113.194538 L131.224494,133.967562 C132.344917,135.871491 134.796639,136.506649 136.700569,135.386226 C136.880063,135.280597 137.051033,135.161112 137.21192,135.028858 L154.332783,120.955091 C155.864997,119.695573 156.242814,117.503451 155.220638,115.803679 L143.311492,96 L143.311492,96 L119,113.194538 Z" id="路径-11" fill="#94A2EB"></path>
                            <path d="M0,115 L16.6385681,111.807413 C17.1872357,111.702136 17.7077655,111.483091 18.1666229,111.164391 L33.631337,100.423361 C34.5385519,99.7932536 34.7631924,98.5470079 34.1330854,97.6397929 C33.7178271,97.0419126 33.0105139,96.7168686 32.2863702,96.7911396 L23.6536552,97.6765441 L23.6536552,97.6765441 L0,115 Z" id="路径-11" fill="#94A2EB" transform="translate(20.000000, 105.500000) scale(-1, -1) translate(-20.000000, -105.500000) "></path>
                            <g id="Group-6" transform="translate(74.561057, 72.734105) rotate(-28.000000) translate(-74.561057, -72.734105) translate(46.061057, 6.234105)">
                                <path d="M37.7395776,132.154244 C30.8891872,127.718081 25.6426613,119.666667 22,108 C16.536008,90.5 34.768004,63.5 28.231996,46 C21.695988,28.5 9.06624495,28.7906092 5.46399197,30.5 C1.86173899,32.2093908 -4.78149274,40.8635933 5.46399197,55.5 C15.7094767,70.1364067 29.1071408,72.0733074 33.463992,70.5 C42.463992,67.25 43.4583266,64.1039816 47.963992,59.5 C54.8955495,52.417192 56.463992,39.4079118 56.463992,33.5 C56.463992,20.8333333 53.6306586,13.3333333 47.963992,11" id="Line" stroke="url(#linearGradient-1)" stroke-linecap="round" stroke-dasharray="5"></path>
                                <g id="Group-4" transform="translate(37.000000, 0.000000)">
                                    <circle id="Oval" fill="#D7DDFF" cx="3" cy="11" r="3"></circle>
                                    <ellipse id="Oval" fill="#838698" transform="translate(8.000000, 7.500000) rotate(45.000000) translate(-8.000000, -7.500000) " cx="8" cy="7.5" rx="5" ry="3.5"></ellipse>
                                    <circle id="Oval" fill="#838698" transform="translate(4.000000, 4.000000) rotate(45.000000) translate(-4.000000, -4.000000) " cx="4" cy="4" r="2"></circle>
                                    <circle id="Oval" fill="#D7DDFF" cx="11" cy="3" r="3"></circle>
                                </g>
                            </g>
                            <path d="M119,113 L111.913514,150.738218 C111.558347,152.629613 109.906677,154 107.982225,154 L16,154 L16,154 L16,113 L119,113 Z" id="路径-12" fill-opacity="0.246284965" fill="#05135C"></path>
                            <path d="M16.7331385,113 L3.94883803,138.189718 C2.94904663,140.15967 3.73551748,142.567123 5.70546984,143.566914 C6.26644562,143.851621 6.88666426,144 7.5157523,144 L103.473466,144 C105.047921,144 106.475928,143.076383 107.121619,141.64042 L120,113 L120,113 L16.7331385,113 Z" id="路径-10" fill="#94A2EB"></path>
                        </g>
                    </g>
                </g>
            </g>
        </g>
    </g>
</svg>