<?xml version="1.0" encoding="UTF-8"?>
<svg width="248px" height="187px" viewBox="0 0 248 187" version="1.1" xmlns="http://www.w3.org/2000/svg" xmlns:xlink="http://www.w3.org/1999/xlink">
    <!-- Generator: Sketch 57.1 (83088) - https://sketch.com -->
    <title>Group 10</title>
    <desc>Created with Sketch.</desc>
    <defs>
        <path d="M5.89849285,3 C8.051571,3 9.7969857,4.79584947 9.7969857,7.01114206 C9.7969857,8.87879836 8.55638976,10.4483253 6.87682602,10.8949311 L6.876,15.083 L8.82236249,15.0835655 L8.82236249,17.0891365 L6.876,17.089 L6.87613036,18.994429 L9.8,18.994429 L9.8,21 L4.92688394,21 L4.926,17.089 L4.92386964,17.0891365 L4.92386964,15.0835655 L4.926,15.083 L4.92618667,10.8965284 C3.24356465,10.4520784 2,8.88103165 2,7.01114206 C2,4.79584947 3.7454147,3 5.89849285,3 Z M21.5,13 L21.5,18 L11.75,18 L11.75,13 L21.5,13 Z M21.5,6 L21.5,11 L11.75,11 L11.75,6 L21.5,6 Z M5.89849285,5.00557103 C4.82195378,5.00557103 3.94924643,5.90349577 3.94924643,7.01114206 C3.94924643,8.11878836 4.82195378,9.01671309 5.89849285,9.01671309 C6.97503192,9.01671309 7.84773928,8.11878836 7.84773928,7.01114206 C7.84773928,5.90349577 6.97503192,5.00557103 5.89849285,5.00557103 Z" id="path-1"></path>
        <path d="M5.89849285,3 C8.051571,3 9.7969857,4.79584947 9.7969857,7.01114206 C9.7969857,8.87879836 8.55638976,10.4483253 6.87682602,10.8949311 L6.876,15.083 L8.82236249,15.0835655 L8.82236249,17.0891365 L6.876,17.089 L6.87613036,18.994429 L9.8,18.994429 L9.8,21 L4.92688394,21 L4.926,17.089 L4.92386964,17.0891365 L4.92386964,15.0835655 L4.926,15.083 L4.92618667,10.8965284 C3.24356465,10.4520784 2,8.88103165 2,7.01114206 C2,4.79584947 3.7454147,3 5.89849285,3 Z M21.5,13 L21.5,18 L11.75,18 L11.75,13 L21.5,13 Z M21.5,6 L21.5,11 L11.75,11 L11.75,6 L21.5,6 Z M5.89849285,5.00557103 C4.82195378,5.00557103 3.94924643,5.90349577 3.94924643,7.01114206 C3.94924643,8.11878836 4.82195378,9.01671309 5.89849285,9.01671309 C6.97503192,9.01671309 7.84773928,8.11878836 7.84773928,7.01114206 C7.84773928,5.90349577 6.97503192,5.00557103 5.89849285,5.00557103 Z" id="path-3"></path>
        <path d="M5.89849285,3 C8.051571,3 9.7969857,4.79584947 9.7969857,7.01114206 C9.7969857,8.87879836 8.55638976,10.4483253 6.87682602,10.8949311 L6.876,15.083 L8.82236249,15.0835655 L8.82236249,17.0891365 L6.876,17.089 L6.87613036,18.994429 L9.8,18.994429 L9.8,21 L4.92688394,21 L4.926,17.089 L4.92386964,17.0891365 L4.92386964,15.0835655 L4.926,15.083 L4.92618667,10.8965284 C3.24356465,10.4520784 2,8.88103165 2,7.01114206 C2,4.79584947 3.7454147,3 5.89849285,3 Z M21.5,13 L21.5,18 L11.75,18 L11.75,13 L21.5,13 Z M21.5,6 L21.5,11 L11.75,11 L11.75,6 L21.5,6 Z M5.89849285,5.00557103 C4.82195378,5.00557103 3.94924643,5.90349577 3.94924643,7.01114206 C3.94924643,8.11878836 4.82195378,9.01671309 5.89849285,9.01671309 C6.97503192,9.01671309 7.84773928,8.11878836 7.84773928,7.01114206 C7.84773928,5.90349577 6.97503192,5.00557103 5.89849285,5.00557103 Z" id="path-5"></path>
        <path d="M5.89849285,3 C8.051571,3 9.7969857,4.79584947 9.7969857,7.01114206 C9.7969857,8.87879836 8.55638976,10.4483253 6.87682602,10.8949311 L6.876,15.083 L8.82236249,15.0835655 L8.82236249,17.0891365 L6.876,17.089 L6.87613036,18.994429 L9.8,18.994429 L9.8,21 L4.92688394,21 L4.926,17.089 L4.92386964,17.0891365 L4.92386964,15.0835655 L4.926,15.083 L4.92618667,10.8965284 C3.24356465,10.4520784 2,8.88103165 2,7.01114206 C2,4.79584947 3.7454147,3 5.89849285,3 Z M21.5,13 L21.5,18 L11.75,18 L11.75,13 L21.5,13 Z M21.5,6 L21.5,11 L11.75,11 L11.75,6 L21.5,6 Z M5.89849285,5.00557103 C4.82195378,5.00557103 3.94924643,5.90349577 3.94924643,7.01114206 C3.94924643,8.11878836 4.82195378,9.01671309 5.89849285,9.01671309 C6.97503192,9.01671309 7.84773928,8.11878836 7.84773928,7.01114206 C7.84773928,5.90349577 6.97503192,5.00557103 5.89849285,5.00557103 Z" id="path-7"></path>
    </defs>
    <g id="缺省页" stroke="none" stroke-width="1" fill="none" fill-rule="evenodd">
        <g id="应用市场-未配置token或token已失效" transform="translate(-361.000000, -448.000000)">
            <g id="编组-4" transform="translate(361.000000, 448.000000)">
                <g id="Group-10">
                    <g id="management">
                        <path d="M12.8235294,0 L205.176471,0 C213.72549,0 218,4.28571437 218,12.8571431 L218,149.142857 C218,157.714286 213.72549,162 205.176471,162 L12.8235294,162 C4.27450979,162 0,157.714286 0,149.142857 L0,12.8571431 C0,4.28571456 4.27450979,0 12.8235294,0 Z" id="路径" fill="#DEE0ED"></path>
                        <path d="M85.116279,10 L184.883721,10 C188.294574,10 190,11.6666667 190,15 L190,15 C190,18.3333334 188.294574,20 184.883721,20 L85.116279,20 C81.7054263,20 80,18.3333334 80,15 L80,15 C80,11.6666669 81.7054263,10 85.116279,10 Z" id="路径" fill="#CFD5F1"></path>
                        <path d="M18,10 L18,10 C21.3333331,10 23,11.6666667 23,15 L23,15 C23,18.3333334 21.3333333,20 18,20 L18,20 C14.6666666,20 13,18.3333334 13,15 L13,15 C13,11.6666669 14.6666666,10 18,10 Z" id="路径" fill="#F9FAFF"></path>
                        <path d="M36,10 L36,10 C39.3333334,10 41,11.6666667 41,15 L41,15 C41,18.3333334 39.3333334,20 36,20 L36,20 C32.6666669,20 31,18.3333334 31,15 L31,15 C31,11.6666669 32.6666667,10 36,10 Z" id="路径" fill="#F9FAFF"></path>
                        <path d="M54,10 L54,10 C57.3333331,10 59,11.6666667 59,15 L59,15 C59,18.3333334 57.3333333,20 54,20 L54,20 C50.6666666,20 49,18.3333334 49,15 L49,15 C49,11.6666669 50.6666666,10 54,10 Z" id="路径" fill="#F9FAFF"></path>
                        <path d="M0,31 L218,31 L218,150.058824 C218,157.206235 212.258906,163 205.176471,163 L12.8235294,163 C5.74109399,163 0,157.206235 0,150.058824 L0,31 Z" id="路径" fill="#F2F4FD"></path>
                        <g id="icon-token" transform="translate(18.000000, 46.000000)">
                            <rect id="矩形" x="0" y="0" width="24" height="24"></rect>
                            <mask id="mask-2" fill="white">
                                <use xlink:href="#path-1"></use>
                            </mask>
                            <use id="蒙版" fill="#DEE0ED" fill-rule="nonzero" xlink:href="#path-1"></use>
                        </g>
                        <g id="icon-token" transform="translate(18.000000, 85.000000)">
                            <rect id="矩形" x="0" y="0" width="24" height="24"></rect>
                            <mask id="mask-4" fill="white">
                                <use xlink:href="#path-3"></use>
                            </mask>
                            <use id="蒙版" fill="#DEE0ED" fill-rule="nonzero" xlink:href="#path-3"></use>
                        </g>
                        <g id="编组-2" transform="translate(54.000000, 90.000000)" fill="#E8EAF4">
                            <path d="M2.57575779,0 L82.4242425,0 C84.1414142,0 85,0.833333288 85,2.5 L85,2.5 C85,4.16666644 84.1414142,5 82.4242425,5 L2.57575779,5 C0.858586119,5 0,4.16666662 0,2.5 L0,2.5 C0,0.833333288 0.85858593,0 2.57575779,0 Z" id="路径"></path>
                            <path d="M2.54054074,10 L44.4594593,10 C46.1531529,10 47,10.8333333 47,12.5 L47,12.5 C47,14.1666667 46.1531531,15 44.4594593,15 L2.54054074,15 C0.846847101,15 0,14.1666667 0,12.5 L0,12.5 C0,10.8333333 0.846846915,10 2.54054074,10 Z" id="路径"></path>
                        </g>
                        <g id="icon-token" transform="translate(18.000000, 124.000000)">
                            <rect id="矩形" x="0" y="0" width="24" height="24"></rect>
                            <mask id="mask-6" fill="white">
                                <use xlink:href="#path-5"></use>
                            </mask>
                            <use id="蒙版" fill="#DEE0ED" fill-rule="nonzero" xlink:href="#path-5"></use>
                        </g>
                        <g id="编组" transform="translate(54.000000, 51.000000)" fill="#E8EAF4">
                            <path d="M2.57575779,0 L82.4242425,0 C84.1414142,0 85,0.833333333 85,2.5 L85,2.5 C85,4.16666667 84.1414142,5 82.4242425,5 L2.57575779,5 C0.858586119,5 0,4.16666667 0,2.5 L0,2.5 C0,0.833333333 0.85858593,0 2.57575779,0 Z" id="路径"></path>
                            <path d="M2.54054074,10 L44.4594593,10 C46.1531529,10 47,10.8333333 47,12.5 L47,12.5 C47,14.1666667 46.1531531,15 44.4594593,15 L2.54054074,15 C0.846847101,15 0,14.1666667 0,12.5 L0,12.5 C0,10.8333333 0.846846915,10 2.54054074,10 Z" id="路径"></path>
                        </g>
                        <g id="编组-3" transform="translate(54.000000, 129.000000)" fill="#E8EAF4">
                            <path d="M2.57575779,0 L82.4242425,0 C84.1414142,0 85,0.833333379 85,2.5 L85,2.5 C85,4.16666671 84.1414142,5 82.4242425,5 L2.57575779,5 C0.858586119,5 0,4.16666671 0,2.5 L0,2.5 C0,0.833333562 0.85858593,0 2.57575779,0 Z" id="路径"></path>
                            <path d="M2.54054074,10 L44.4594593,10 C46.1531529,10 47,10.8333334 47,12.5 L47,12.5 C47,14.1666667 46.1531531,15 44.4594593,15 L2.54054074,15 C0.846847101,15 0,14.1666667 0,12.5 L0,12.5 C0,10.8333336 0.846846915,10 2.54054074,10 Z" id="路径"></path>
                        </g>
                        <path d="M114.538462,58 L142.461539,58 C144.153846,58 145,58.8571429 145,60.5714288 L145,73.4285715 C145,75.1428572 144.153846,76 142.461539,76 L114.538462,76 C112.846154,76 112,75.1428572 112,73.4285715 L112,60.5714288 C112,58.8571431 112.846154,58 114.538462,58 L114.538462,58 Z" id="路径" fill="#F2F4FD"></path>
                        <path d="M157.5,59 L172.5,59 C174.166667,59 175,59.8333333 175,61.5 L175,61.5 C175,63.1666667 174.166667,64 172.5,64 L157.5,64 C155.833333,64 155,63.1666667 155,61.5 L155,61.5 C155,59.8333333 155.833333,59 157.5,59 Z" id="路径" fill="#F2F4FD"></path>
                        <path d="M186.5,59 L201.5,59 C203.166667,59 204,59.8333333 204,61.5 L204,61.5 C204,63.1666667 203.166667,64 201.5,64 L186.5,64 C184.833333,64 184,63.1666667 184,61.5 L184,61.5 C184,59.8333333 184.833333,59 186.5,59 Z" id="路径" fill="#F2F4FD"></path>
                        <path d="M157.5,69 L172.5,69 C174.166667,69 175,69.8333334 175,71.5 L175,71.5 C175,73.1666667 174.166667,74 172.5,74 L157.5,74 C155.833333,74 155,73.1666667 155,71.5 L155,71.5 C155,69.8333336 155.833333,69 157.5,69 Z" id="路径" fill="#F2F4FD"></path>
                        <path d="M186.5,69 L201.5,69 C203.166667,69 204,69.8333334 204,71.5 L204,71.5 C204,73.1666667 203.166667,74 201.5,74 L186.5,74 C184.833333,74 184,73.1666667 184,71.5 L184,71.5 C184,69.8333336 184.833333,69 186.5,69 Z" id="路径" fill="#F2F4FD"></path>
                    </g>
                    <g id="baseline-settings-20px" transform="translate(96.000000, 34.000000)">
                        <polygon id="路径" points="0 0 170 0 170 170 0 170"></polygon>
                        <path d="M135.68456,91.63 C135.93956,89.505 136.10956,87.295 136.10956,85 C136.10956,82.705 135.93956,80.495 135.59956,78.37 L149.96456,67.15 C151.23956,66.13 151.57956,64.26 150.81456,62.815 L137.21456,39.27 C136.36456,37.74 134.57956,37.23 133.04956,37.74 L116.13456,44.54 C112.56456,41.82 108.82456,39.61 104.65956,37.91 L102.10956,19.89 C101.85456,18.19 100.40956,17 98.7095603,17 L71.5095603,17 C69.8095603,17 68.4495603,18.19 68.1945603,19.89 L65.6445603,37.91 C61.4795603,39.61 57.6545603,41.905 54.1695603,44.54 L37.2545603,37.74 C35.7245603,37.145 33.9395603,37.74 33.0895603,39.27 L19.4895603,62.815 C18.6395603,64.345 18.9795603,66.13 20.3395603,67.15 L34.7045603,78.37 C34.3645603,80.495 34.1095603,82.79 34.1095603,85 C34.1095603,87.21 34.2795603,89.505 34.6195603,91.63 L20.2545603,102.85 C18.9795603,103.87 18.6395603,105.74 19.4045603,107.185 L33.0045603,130.73 C33.8545603,132.26 35.6395603,132.77 37.1695603,132.26 L54.0845603,125.46 C57.6545603,128.18 61.3945603,130.39 65.5595603,132.09 L68.1095603,150.11 C68.4495603,151.81 69.8095603,153 71.5095603,153 L98.7095603,153 C100.40956,153 101.85456,151.81 102.02456,150.11 L104.57456,132.09 C108.73956,130.39 112.56456,128.095 116.04956,125.46 L132.96456,132.26 C134.49456,132.855 136.27956,132.26 137.12956,130.73 L150.72956,107.185 C151.57956,105.655 151.23956,103.87 149.87956,102.85 L135.68456,91.63 L135.68456,91.63 Z" id="路径" fill="#6876C4" fill-rule="nonzero"></path>
                        <path d="M85,125 C63,125 45,107 45,85 C45,63 63,45 85,45 C107,45 125,63 125,85 C125,107 107,125 85,125 Z" id="路径" stroke="#FFFFFF" stroke-linecap="round" stroke-dasharray="7" fill-rule="nonzero"></path>
                        <path d="M85,115 C68.5,115 55,101.5 55,85 C55,68.5 68.5,55 85,55 C101.5,55 115,68.5 115,85 C115,101.5 101.5,115 85,115 Z" id="路径" fill="#FFFFFF" fill-rule="nonzero"></path>
                        <path d="M85,105 C74,105 65,96 65,85 C65,74 74,65 85,65 C96,65 105,74 105,85 C105,96 96,105 85,105 Z" id="路径" fill="#292E76" fill-rule="nonzero"></path>
                        <g id="icon-token" transform="translate(73.000000, 73.000000)">
                            <rect id="矩形" x="0" y="0" width="24" height="24"></rect>
                            <mask id="mask-8" fill="white">
                                <use xlink:href="#path-7"></use>
                            </mask>
                            <use id="蒙版" fill="#FFBA1C" fill-rule="nonzero" xlink:href="#path-7"></use>
                        </g>
                    </g>
                </g>
            </g>
        </g>
    </g>
</svg>